<svg xmlns="http://www.w3.org/2000/svg" viewBox="0 0 76.3518 47.6355" fill="none" aria-hidden="true">
  <path
    fill-rule="evenodd"
    d="M 19.6018,24.2695 C 23.1908,22.025 25.5818,18.066 25.5818,13.5625 C 25.5818,6.582 19.8438,0.9035 12.7908,0.9035 C 5.7376,0.9035 0,6.5825 0,13.5625 C 0,18.066 2.3906,22.025 5.9796,24.2695 C 2.3906,26.514 0,30.473 0,34.9765 C 0,41.957 5.7381,47.6355 12.7908,47.6355 C 19.8438,47.6355 25.5818,41.957 25.5818,34.9765 C 25.5818,30.473 23.1908,26.514 19.6018,24.2695 M 12.7908,5.082 C 17.5158,5.082 21.3588,8.8865 21.3588,13.5625 C 21.3588,18.2385 17.5158,22.043 12.7908,22.043 C 8.0661,22.043 4.2225,18.2385 4.2225,13.5625 C 4.2225,8.8865 8.0666,5.082 12.7908,5.082 M 12.7908,43.457 C 8.0661,43.457 4.2225,39.6525 4.2225,34.9765 C 4.2225,30.3005 8.0666,26.496 12.7908,26.496 C 17.5148,26.496 21.3588,30.3005 21.3588,34.9765 C 21.3588,39.6525 17.5158,43.457 12.7908,43.457 Z"
    fill="currentColor"
  />
  <path
    d="M 76.3518,21.3565 L 58.1268,21.3565 L 71.0138,8.603 L 67.6598,5.283 L 54.7718,18.037 L 54.7718,0 L 50.0288,0 L 50.0288,18.037 L 37.1418,5.283 L 33.7868,8.603 L 46.6738,21.3565 L 28.4488,21.3565 L 28.4488,26.0515 L 46.6748,26.0515 L 33.7868,38.8055 L 37.1418,42.1255 L 50.0288,29.3715 L 50.0288,47.408 L 54.7718,47.408 L 54.7718,29.3715 L 67.6598,42.1255 L 71.0138,38.8055 L 58.1268,26.0515 L 76.3518,26.0515 Z"
    fill="currentColor"
  />
</svg>
