<svg viewBox="0 0 236.88999938964844 42" xmlns="http://www.w3.org/2000/svg" data-logo="logo">
        <g transform="translate(0, 0.5)
    rotate(0 32 20.5)" id="logogram" style="opacity: 1;"><path fill="#FFA629" d="M40.1509 20.27C40.1509 31.3157 31.1966 40.27 20.1509 40.27C9.10524 40.27 0.150879 31.3157 0.150879 20.27C0.150879 9.2243 9.10524 0.269989 20.1509 0.269989C31.1966 0.269989 40.1509 9.2243 40.1509 20.27Z"></path><path fill="#809FFF" d="M63.1509 20.27C63.1509 31.3157 54.1964 40.27 43.1508 40.27C32.1052 40.27 23.1509 31.3157 23.1509 20.27C23.1509 9.2243 32.1052 0.269989 43.1508 0.269989C54.1964 0.269989 63.1509 9.2243 63.1509 20.27Z"></path><path fill="#0F172A" d="M31.6509 36.6351C36.792 33.0157 40.1509 27.0351 40.1509 20.27C40.1509 13.5049 36.792 7.52425 31.6509 3.90488C26.5098 7.52425 23.1509 13.5049 23.1509 20.27C23.1509 27.0351 26.5098 33.0157 31.6509 36.6351Z" clip-rule="evenodd" fill-rule="evenodd"></path></g>
        <g transform="translate(70, 0.92822265625)" id="logotype" style="opacity: 1;"><path d="M8.26 33L8.26 7.54L11.95 7.54L20.59 28.66L20.90 28.66L29.55 7.54L33.36 7.54L33.36 33L30.34 33L30.34 13.65L30.10 13.65L22.08 33L19.31 33L11.40 13.65L11.16 13.65L11.16 33L8.26 33ZM45.49 33.41L45.49 33.41Q42.74 33.41 40.74 32.18Q38.73 30.95 37.65 28.74Q36.57 26.52 36.57 23.60L36.57 23.60Q36.57 20.66 37.63 18.42Q38.69 16.18 40.62 14.92Q42.54 13.65 45.12 13.65L45.12 13.65Q46.61 13.65 48.08 14.15Q49.54 14.65 50.75 15.76Q51.95 16.87 52.67 18.70Q53.39 20.52 53.39 23.19L53.39 23.19L53.39 24.46L38.66 24.46L38.66 21.93L51.80 21.93L50.45 22.88Q50.45 20.97 49.85 19.48Q49.25 18.00 48.07 17.14Q46.88 16.29 45.12 16.29L45.12 16.29Q43.36 16.29 42.10 17.15Q40.85 18.01 40.18 19.40Q39.51 20.78 39.51 22.37L39.51 22.37L39.51 24.04Q39.51 26.22 40.27 27.72Q41.02 29.22 42.37 30.00Q43.72 30.78 45.49 30.78L45.49 30.78Q46.64 30.78 47.58 30.45Q48.52 30.11 49.20 29.44Q49.89 28.76 50.25 27.77L50.25 27.77L53.08 28.59Q52.64 30.03 51.59 31.11Q50.54 32.20 48.98 32.80Q47.43 33.41 45.49 33.41ZM69.66 18.20L69.66 18.20L67.03 18.92Q66.65 17.94 65.74 17.06Q64.82 16.18 62.89 16.18L62.89 16.18Q61.15 16.18 59.99 17.00Q58.82 17.81 58.82 19.02L58.82 19.02Q58.82 20.11 59.62 20.76Q60.41 21.41 62.11 21.82L62.11 21.82L64.94 22.51Q67.49 23.12 68.75 24.40Q70.00 25.69 70.00 27.67L70.00 27.67Q70.00 29.31 69.06 30.61Q68.12 31.91 66.45 32.66Q64.77 33.41 62.55 33.41L62.55 33.41Q59.63 33.41 57.72 32.13Q55.82 30.85 55.30 28.42L55.30 28.42L58.07 27.74Q58.47 29.27 59.59 30.04Q60.70 30.81 62.52 30.81L62.52 30.81Q64.55 30.81 65.77 29.93Q66.99 29.05 66.99 27.84L66.99 27.84Q66.99 25.82 64.16 25.14L64.16 25.14L60.98 24.39Q58.35 23.75 57.12 22.46Q55.89 21.16 55.89 19.19L55.89 19.19Q55.89 17.57 56.80 16.32Q57.71 15.07 59.30 14.36Q60.89 13.65 62.89 13.65L62.89 13.65Q65.75 13.65 67.36 14.91Q68.98 16.17 69.66 18.20ZM75.71 21.52L75.71 21.52L75.71 33L72.80 33L72.80 7.54L75.71 7.54L75.71 16.90L75.98 16.90Q76.65 15.41 77.99 14.53Q79.33 13.65 81.59 13.65L81.59 13.65Q83.54 13.65 85.01 14.43Q86.48 15.21 87.30 16.81Q88.12 18.41 88.12 20.87L88.12 20.87L88.12 33L85.18 33L85.18 21.07Q85.18 18.78 84.00 17.53Q82.82 16.29 80.73 16.29L80.73 16.29Q79.28 16.29 78.15 16.90Q77.03 17.52 76.37 18.68Q75.71 19.84 75.71 21.52ZM100.32 33.44L100.32 33.44Q97.58 33.44 95.58 32.56Q93.59 31.68 92.45 30.10Q91.31 28.52 91.16 26.44L91.16 26.44L94.34 26.44Q94.47 27.87 95.32 28.81Q96.17 29.75 97.48 30.21Q98.80 30.68 100.32 30.68L100.32 30.68Q102.08 30.68 103.49 30.09Q104.90 29.51 105.72 28.47Q106.54 27.43 106.54 26.03L106.54 26.03Q106.54 24.76 105.82 23.98Q105.10 23.19 103.95 22.69Q102.80 22.20 101.45 21.82L101.45 21.82L98.34 20.93Q95.35 20.08 93.61 18.48Q91.88 16.88 91.88 14.30L91.88 14.30Q91.88 12.17 93.03 10.57Q94.18 8.97 96.16 8.08Q98.13 7.19 100.56 7.19L100.56 7.19Q103.02 7.19 104.93 8.07Q106.85 8.95 107.98 10.47Q109.10 11.98 109.17 13.89L109.17 13.89L106.16 13.89Q105.94 12.01 104.36 10.97Q102.78 9.93 100.46 9.93L100.46 9.93Q98.78 9.93 97.52 10.48Q96.25 11.02 95.55 11.98Q94.85 12.94 94.85 14.17L94.85 14.17Q94.85 15.52 95.69 16.35Q96.52 17.17 97.68 17.64Q98.83 18.10 99.77 18.37L99.77 18.37L102.34 19.09Q103.33 19.36 104.55 19.82Q105.77 20.29 106.91 21.07Q108.04 21.86 108.78 23.08Q109.51 24.30 109.51 26.10L109.51 26.10Q109.51 28.15 108.44 29.81Q107.36 31.48 105.31 32.46Q103.26 33.44 100.32 33.44ZM115.46 40.14L112.56 40.14L112.56 13.89L115.36 13.89L115.36 16.94L115.70 16.94Q116.02 16.44 116.61 15.66Q117.19 14.88 118.28 14.27Q119.37 13.65 121.24 13.65L121.24 13.65Q123.65 13.65 125.48 14.86Q127.30 16.06 128.34 18.28Q129.37 20.49 129.37 23.50L129.37 23.50Q129.37 26.52 128.35 28.75Q127.32 30.98 125.49 32.20Q123.66 33.41 121.27 33.41L121.27 33.41Q119.44 33.41 118.33 32.79Q117.22 32.16 116.62 31.37Q116.02 30.57 115.70 30.06L115.70 30.06L115.46 30.06L115.46 40.14ZM120.90 30.78L120.90 30.78Q122.72 30.78 123.95 29.80Q125.18 28.81 125.81 27.16Q126.43 25.50 126.43 23.46L126.43 23.46Q126.43 21.45 125.82 19.82Q125.20 18.20 123.98 17.24Q122.76 16.29 120.90 16.29L120.90 16.29Q119.10 16.29 117.89 17.18Q116.67 18.08 116.05 19.70Q115.43 21.31 115.43 23.46L115.43 23.46Q115.43 25.62 116.06 27.27Q116.69 28.92 117.91 29.85Q119.13 30.78 120.90 30.78ZM135.11 33L132.21 33L132.21 13.89L135.11 13.89L135.11 33ZM133.68 10.71L133.68 10.71Q132.82 10.71 132.21 10.13Q131.59 9.55 131.59 8.73L131.59 8.73Q131.59 7.91 132.21 7.33Q132.82 6.75 133.68 6.75L133.68 6.75Q134.53 6.75 135.15 7.33Q135.76 7.91 135.76 8.73L135.76 8.73Q135.76 9.55 135.15 10.13Q134.53 10.71 133.68 10.71ZM141.78 33L138.87 33L138.87 13.89L141.68 13.89L141.68 16.80L141.88 16.80Q142.41 15.38 143.79 14.50Q145.16 13.62 146.87 13.62L146.87 13.62Q147.20 13.62 147.67 13.63Q148.15 13.64 148.41 13.65L148.41 13.65L148.41 16.63Q148.26 16.59 147.73 16.53Q147.20 16.46 146.60 16.46L146.60 16.46Q145.21 16.46 144.12 17.04Q143.03 17.62 142.40 18.63Q141.78 19.64 141.78 20.93L141.78 20.93L141.78 33ZM158.25 33.41L158.25 33.41Q155.50 33.41 153.49 32.18Q151.49 30.95 150.41 28.74Q149.33 26.52 149.33 23.60L149.33 23.60Q149.33 20.66 150.39 18.42Q151.45 16.18 153.37 14.92Q155.30 13.65 157.88 13.65L157.88 13.65Q159.36 13.65 160.83 14.15Q162.30 14.65 163.51 15.76Q164.71 16.87 165.43 18.70Q166.15 20.52 166.15 23.19L166.15 23.19L166.15 24.46L151.42 24.46L151.42 21.93L164.56 21.93L163.21 22.88Q163.21 20.97 162.61 19.48Q162.01 18.00 160.83 17.14Q159.64 16.29 157.88 16.29L157.88 16.29Q156.12 16.29 154.86 17.15Q153.60 18.01 152.94 19.40Q152.27 20.78 152.27 22.37L152.27 22.37L152.27 24.04Q152.27 26.22 153.02 27.72Q153.78 29.22 155.13 30.00Q156.48 30.78 158.25 30.78L158.25 30.78Q159.40 30.78 160.34 30.45Q161.28 30.11 161.96 29.44Q162.65 28.76 163.00 27.77L163.00 27.77L165.84 28.59Q165.40 30.03 164.35 31.11Q163.29 32.20 161.74 32.80Q160.18 33.41 158.25 33.41Z" fill="#0F172A"></path></g>
        
      </svg>