<svg width="1000" height="158" viewBox="0 0 1000 158" fill="none" xmlns="http://www.w3.org/2000/svg">
<path d="M99.1279 27.5682C99.1279 25.4299 101.547 24.0934 103.483 25.1626L141.042 45.9111C142.977 46.9803 142.977 49.6532 141.042 50.7224L103.483 71.4709C101.547 72.5401 99.1279 71.2036 99.1279 69.0653V27.5682Z" fill="black"/>
<path d="M57.5587 138.017C57.5587 140.155 55.1395 141.491 53.2041 140.422L15.6449 119.674C13.7095 118.604 13.7095 115.931 15.6449 114.863L53.2041 94.1139C55.1395 93.0444 57.5587 94.3813 57.5587 96.5194V138.017Z" fill="black"/>
<path d="M90.3563 23.8578H66.4056C64.8022 23.8578 63.5024 25.1014 63.5024 26.6356V139.136C63.5024 140.67 64.8022 141.913 66.4056 141.913H90.3563C91.9597 141.913 93.2594 140.67 93.2594 139.136V26.6356C93.2594 25.1014 91.9597 23.8578 90.3563 23.8578Z" fill="black"/>
<path d="M229 85.65C246.415 90.105 259.78 95.64 259.78 113.19C259.78 132.765 242.23 142.35 222.655 142.35C199.705 142.35 184.315 131.415 184.315 111.03V108.735H199.165C199.03 124.125 207.535 133.305 223.06 133.305C234.94 133.305 244.525 126.96 244.525 115.215C244.525 101.715 230.62 99.96 217.255 96.585C200.245 92.4 186.34 87.135 186.475 69.72C186.475 51.225 203.755 41.505 222.52 41.505C242.095 41.505 258.565 51.225 258.565 67.965V70.395H243.985C243.985 57.975 234.94 50.55 222.385 50.55C211.315 50.55 201.46 56.76 201.46 67.695C201.325 81.195 215.5 82.275 229 85.65ZM286.954 45.15C286.954 50.28 282.904 54.195 277.909 54.195C272.914 54.195 268.999 50.28 268.999 45.15C268.999 40.155 272.914 36.375 277.909 36.375C282.904 36.375 286.954 40.155 286.954 45.15ZM271.294 141V70.125H284.794V141H271.294ZM298.773 141V37.455H312.273V141H298.773ZM388.315 70.125L358.21 141H345.79L315.685 70.125H330.4L354.565 128.175L379.27 70.125H388.315ZM452.639 117.51C452.639 134.52 436.574 142.35 419.564 142.35C397.019 142.35 382.844 128.31 382.844 105.765C382.844 83.895 397.019 68.775 418.889 68.775C440.219 68.775 453.584 81.465 453.584 102.795C453.584 104.82 453.584 106.305 453.314 108.735H396.749C397.559 123.045 404.984 134.79 419.564 134.79C430.904 134.79 439.004 128.85 439.004 117.51H452.639ZM418.889 76.335C404.984 76.335 397.964 87.54 396.884 101.31H440.219C440.219 86.73 433.469 76.335 418.889 76.335ZM501.924 69.585V80.385C499.899 79.845 497.469 79.575 495.174 79.575C490.044 79.575 484.374 80.79 480.189 84.57C476.004 88.35 473.034 94.425 473.034 103.875V141H459.534V70.125H470.874L472.899 84.03C476.409 72.555 485.454 68.775 494.634 68.775C497.469 68.775 500.034 69.045 501.924 69.585ZM578.218 85.65C595.633 90.105 608.998 95.64 608.998 113.19C608.998 132.765 591.448 142.35 571.873 142.35C548.923 142.35 533.533 131.415 533.533 111.03V108.735H548.383C548.248 124.125 556.753 133.305 572.278 133.305C584.158 133.305 593.743 126.96 593.743 115.215C593.743 101.715 579.838 99.96 566.473 96.585C549.463 92.4 535.558 87.135 535.693 69.72C535.693 51.225 552.973 41.505 571.738 41.505C591.313 41.505 607.783 51.225 607.783 67.965V70.395H593.203C593.203 57.975 584.158 50.55 571.603 50.55C560.533 50.55 550.678 56.76 550.678 67.695C550.543 81.195 564.718 82.275 578.218 85.65ZM654.937 139.92C651.562 141.27 645.892 142.215 640.897 142.215C626.587 142.215 620.917 136.005 620.917 121.56V77.55H611.332V70.125H620.917V57.165L634.417 53.925V70.125H651.697V77.55H634.417V118.32C634.417 128.04 634.552 133.305 644.137 133.71C647.242 133.71 651.427 133.305 654.937 132.36V139.92ZM714.527 141L712.502 128.715C709.262 136.005 700.082 142.35 688.472 142.35C668.087 142.35 658.232 129.255 658.232 109.005V70.125H671.732V108.33C671.732 123.045 677.672 133.035 691.577 133.035C705.077 133.035 712.502 122.235 712.502 108.87V70.125H725.867V141H714.527ZM794.845 141L792.685 128.31C788.23 136.14 778.645 142.35 766.36 142.35C745.03 142.35 732.61 126.96 732.61 105.63C732.61 85.11 746.11 68.775 766.63 68.775C778.645 68.775 787.96 74.31 792.685 81.735V37.455H806.185V141H794.845ZM746.515 105.36C746.515 120.75 754.21 133.845 769.6 133.845C784.45 133.845 792.685 120.48 792.685 105.36C792.685 90.375 784.585 77.01 769.6 77.01C754.345 77.01 746.515 90.24 746.515 105.36ZM835.972 45.15C835.972 50.28 831.922 54.195 826.927 54.195C821.932 54.195 818.017 50.28 818.017 45.15C818.017 40.155 821.932 36.375 826.927 36.375C831.922 36.375 835.972 40.155 835.972 45.15ZM820.312 141V70.125H833.812V141H820.312ZM916.775 105.63C916.775 127.77 901.385 142.35 879.515 142.35C857.645 142.35 842.255 127.905 842.255 105.63C842.255 83.76 857.645 68.775 879.515 68.775C901.25 68.775 916.775 83.76 916.775 105.63ZM856.16 105.63C856.16 121.695 863.585 134.79 879.515 134.79C895.31 134.79 902.87 121.56 902.87 105.63C902.87 89.97 895.31 76.335 879.515 76.335C863.99 76.335 856.16 89.97 856.16 105.63ZM950.848 134.925C959.758 134.925 967.858 131.28 967.858 122.235C967.858 113.19 955.978 111.84 947.068 109.95C933.298 107.115 920.473 103.2 920.473 89.565C920.473 75.39 935.458 68.64 949.633 68.64C965.563 68.64 980.548 75.255 980.548 89.7V91.05H967.318C967.318 81.06 959.623 76.065 949.498 76.065C941.668 76.065 933.703 80.25 933.703 87.945C933.703 96.315 942.073 97.8 952.873 100.23C963.943 102.66 981.493 104.685 981.493 120.615C981.493 136.005 965.968 142.35 950.713 142.35C933.838 142.35 919.258 135.33 919.258 118.995V117.375H932.623C932.623 128.715 939.778 134.925 950.848 134.925Z" fill="black"/>
</svg>
