
      <svg data-logo="logo" xmlns="http://www.w3.org/2000/svg" viewBox="0 0 190.34000396728516 42">
        <g id="logogram" transform="
    translate(0, 0.5)
    rotate(0 25.5 20.5)
    
  "><path d="M25.5273 0.900024L50.5272 15.9098V25.8863L25.5273 40.9L0.527222 25.8863V15.9099L25.5273 0.900024Z" fill="#F3F6F8"/><path fill-rule="evenodd" clip-rule="evenodd" d="M0.527222 15.9098L25.5272 0.900024L50.5272 15.9098V25.8863L25.5272 40.9L0.527222 25.8863V15.9098ZM25.5272 34.531L45.2239 22.7022V19.0951L45.2229 19.0945L25.5272 30.9197L5.83148 19.0945L5.83052 19.0951V22.7022L25.5272 34.531ZM25.5272 25.4046L40.629 16.3376L36.9501 14.1298L25.5272 20.9881L14.1043 14.1298L10.4254 16.3376L25.5272 25.4046ZM25.5272 15.473L32.3562 11.3729L25.5272 7.27469L18.6982 11.3729L25.5272 15.473Z" fill="#393F5B"/><path d="M25.5273 0.900024L0.527222 15.9099V25.8863L25.5272 40.9L25.5273 0.900024Z" fill="#606785" fill-opacity="0.3"/></g>
        <g id="logotype" transform="translate(57, 0.92822265625)"><path fill="#070a05" d="M17.50 33.39L17.50 33.39Q14.54 33.39 12.37 32.47Q10.19 31.55 8.96 29.79Q7.73 28.03 7.62 25.51L7.62 25.51L12.12 25.51Q12.24 26.85 12.96 27.74Q13.67 28.63 14.85 29.06Q16.03 29.50 17.47 29.50L17.47 29.50Q18.97 29.50 20.12 29.04Q21.28 28.57 21.93 27.74Q22.58 26.92 22.58 25.82L22.58 25.82Q22.58 24.83 22.00 24.18Q21.43 23.53 20.40 23.08Q19.36 22.63 17.98 22.28L17.98 22.28L15.09 21.53Q11.90 20.71 10.11 19.05Q8.32 17.40 8.32 14.70L8.32 14.70Q8.32 12.44 9.54 10.75Q10.75 9.06 12.85 8.13Q14.96 7.19 17.62 7.19L17.62 7.19Q20.34 7.19 22.39 8.13Q24.44 9.07 25.59 10.73Q26.75 12.39 26.80 14.51L26.80 14.51L22.37 14.51Q22.20 12.87 20.91 11.97Q19.62 11.07 17.55 11.07L17.55 11.07Q16.12 11.07 15.08 11.51Q14.05 11.95 13.49 12.70Q12.94 13.45 12.94 14.42L12.94 14.42Q12.94 15.48 13.60 16.17Q14.25 16.85 15.25 17.26Q16.25 17.67 17.28 17.93L17.28 17.93L19.65 18.54Q21.07 18.88 22.41 19.45Q23.74 20.01 24.81 20.87Q25.88 21.74 26.51 22.97Q27.14 24.20 27.14 25.86L27.14 25.86Q27.14 28.10 26.00 29.80Q24.85 31.50 22.70 32.44Q20.54 33.39 17.50 33.39ZM33.29 40.14L28.85 40.14L28.85 13.89L33.19 13.89L33.19 17.06L33.48 17.06Q33.82 16.37 34.45 15.59Q35.08 14.80 36.17 14.23Q37.26 13.65 38.95 13.65L38.95 13.65Q41.17 13.65 42.95 14.78Q44.72 15.91 45.77 18.11Q46.83 20.30 46.83 23.48L46.83 23.48Q46.83 26.63 45.80 28.83Q44.77 31.03 42.99 32.19Q41.20 33.34 38.93 33.34L38.93 33.34Q37.31 33.34 36.21 32.79Q35.12 32.23 34.47 31.44Q33.82 30.66 33.48 29.98L33.48 29.98L33.29 29.98L33.29 40.14ZM37.73 29.68L37.73 29.68Q39.22 29.68 40.23 28.87Q41.24 28.06 41.75 26.65Q42.26 25.24 42.26 23.46L42.26 23.46Q42.26 21.69 41.76 20.29Q41.25 18.90 40.25 18.11Q39.24 17.31 37.73 17.31L37.73 17.31Q36.26 17.31 35.26 18.08Q34.25 18.85 33.73 20.23Q33.20 21.60 33.20 23.46L33.20 23.46Q33.20 25.33 33.73 26.73Q34.25 28.13 35.26 28.91Q36.28 29.68 37.73 29.68ZM53.74 33.39L53.74 33.39Q51.93 33.39 50.48 32.74Q49.03 32.08 48.19 30.80Q47.35 29.51 47.35 27.63L47.35 27.63Q47.35 26.01 47.96 24.95Q48.57 23.89 49.60 23.26Q50.63 22.63 51.93 22.30Q53.23 21.98 54.63 21.84L54.63 21.84Q56.29 21.65 57.33 21.52Q58.38 21.38 58.86 21.07Q59.35 20.76 59.35 20.11L59.35 20.11L59.35 20.03Q59.35 19.09 58.97 18.43Q58.60 17.77 57.86 17.42Q57.11 17.07 56.02 17.07L56.02 17.07Q54.91 17.07 54.10 17.41Q53.28 17.76 52.77 18.30Q52.26 18.85 52.02 19.48L52.02 19.48L47.90 18.64Q48.46 16.95 49.64 15.85Q50.82 14.75 52.45 14.20Q54.09 13.65 56.00 13.65L56.00 13.65Q57.35 13.65 58.73 13.97Q60.10 14.29 61.25 15.04Q62.39 15.79 63.09 17.06Q63.79 18.32 63.79 20.23L63.79 20.23L63.79 33L59.54 33L59.54 30.37L59.37 30.37Q58.94 31.17 58.20 31.86Q57.45 32.56 56.35 32.97Q55.25 33.39 53.74 33.39ZM54.89 30.09L54.89 30.09Q56.27 30.09 57.27 29.55Q58.27 29.00 58.83 28.10Q59.38 27.21 59.38 26.15L59.38 26.15L59.38 23.89Q59.16 24.06 58.64 24.22Q58.12 24.37 57.48 24.49Q56.84 24.61 56.21 24.69Q55.59 24.78 55.16 24.83L55.16 24.83Q54.17 24.97 53.37 25.28Q52.57 25.58 52.11 26.14Q51.66 26.69 51.66 27.58L51.66 27.58Q51.66 28.40 52.08 28.96Q52.50 29.51 53.22 29.80Q53.95 30.09 54.89 30.09ZM70.68 33L66.24 33L66.24 13.89L70.54 13.89L70.54 17.09L70.75 17.09Q71.26 15.43 72.54 14.53Q73.82 13.64 75.46 13.64L75.46 13.64Q75.84 13.64 76.30 13.67Q76.76 13.71 77.09 13.76L77.09 13.76L77.09 17.84Q76.81 17.76 76.20 17.69Q75.58 17.62 74.99 17.62L74.99 17.62Q73.76 17.62 72.77 18.15Q71.79 18.68 71.23 19.61Q70.68 20.54 70.68 21.75L70.68 21.75L70.68 33ZM84.90 33.34L84.90 33.34Q82.64 33.34 80.85 32.19Q79.07 31.03 78.04 28.83Q77.02 26.63 77.02 23.48L77.02 23.48Q77.02 20.30 78.07 18.11Q79.12 15.91 80.91 14.78Q82.69 13.65 84.88 13.65L84.88 13.65Q86.59 13.65 87.67 14.23Q88.76 14.80 89.40 15.59Q90.04 16.37 90.36 17.06L90.36 17.06L90.55 17.06L90.55 7.54L95.00 7.54L95.00 33L90.64 33L90.64 29.98L90.36 29.98Q90.02 30.66 89.36 31.44Q88.71 32.23 87.63 32.79Q86.55 33.34 84.90 33.34ZM86.11 29.68L86.11 29.68Q87.56 29.68 88.57 28.91Q89.58 28.13 90.11 26.73Q90.64 25.33 90.64 23.46L90.64 23.46Q90.64 21.60 90.12 20.23Q89.60 18.85 88.58 18.08Q87.56 17.31 86.11 17.31L86.11 17.31Q84.61 17.31 83.60 18.11Q82.59 18.90 82.08 20.29Q81.56 21.69 81.56 23.46L81.56 23.46Q81.56 25.24 82.08 26.65Q82.59 28.06 83.61 28.87Q84.62 29.68 86.11 29.68ZM101.86 21.81L101.86 21.81L101.86 33L97.42 33L97.42 7.54L101.80 7.54L101.80 18.61L101.33 18.61Q102.14 16.13 103.69 14.89Q105.25 13.65 107.59 13.65L107.59 13.65Q109.55 13.65 111.03 14.49Q112.51 15.33 113.32 16.94Q114.13 18.54 114.13 20.85L114.13 20.85L114.13 33L109.67 33L109.67 21.53Q109.67 19.62 108.68 18.52Q107.69 17.43 105.95 17.43L105.95 17.43Q104.77 17.43 103.85 17.94Q102.92 18.46 102.39 19.44Q101.86 20.42 101.86 21.81ZM121.91 33.39L121.91 33.39Q120.10 33.39 118.64 32.74Q117.19 32.08 116.35 30.80Q115.52 29.51 115.52 27.63L115.52 27.63Q115.52 26.01 116.12 24.95Q116.73 23.89 117.76 23.26Q118.80 22.63 120.10 22.30Q121.40 21.98 122.80 21.84L122.80 21.84Q124.45 21.65 125.50 21.52Q126.54 21.38 127.03 21.07Q127.51 20.76 127.51 20.11L127.51 20.11L127.51 20.03Q127.51 19.09 127.14 18.43Q126.76 17.77 126.02 17.42Q125.27 17.07 124.18 17.07L124.18 17.07Q123.07 17.07 122.26 17.41Q121.45 17.76 120.93 18.30Q120.42 18.85 120.18 19.48L120.18 19.48L116.06 18.64Q116.63 16.95 117.81 15.85Q118.99 14.75 120.62 14.20Q122.25 13.65 124.16 13.65L124.16 13.65Q125.51 13.65 126.89 13.97Q128.27 14.29 129.41 15.04Q130.56 15.79 131.26 17.06Q131.96 18.32 131.96 20.23L131.96 20.23L131.96 33L127.70 33L127.70 30.37L127.53 30.37Q127.10 31.17 126.36 31.86Q125.62 32.56 124.51 32.97Q123.41 33.39 121.91 33.39ZM123.05 30.09L123.05 30.09Q124.44 30.09 125.44 29.55Q126.44 29.00 126.99 28.10Q127.55 27.21 127.55 26.15L127.55 26.15L127.55 23.89Q127.33 24.06 126.80 24.22Q126.28 24.37 125.64 24.49Q125.00 24.61 124.38 24.69Q123.75 24.78 123.33 24.83L123.33 24.83Q122.34 24.97 121.53 25.28Q120.73 25.58 120.28 26.14Q119.82 26.69 119.82 27.58L119.82 27.58Q119.82 28.40 120.24 28.96Q120.66 29.51 121.39 29.80Q122.11 30.09 123.05 30.09Z"/></g>
        
      </svg>
    